[img]http://pic.phyrefile.com/s/sh/shahaz/2011/05/01/wbz3d_001.png[/img]

[img]http://pic.phyrefile.com/s/sh/shahaz/2011/05/01/inception.png[/img]

[img]http://www.imagefreeks.com/out.php/i85_info.png[/img]


[size="4"][color="#FF00FF"]This is a 2D to 3D conversion using Side By Side Left/Right Technic.
[/color][/size]

[size="4"][color="#FF0000"]- PC & Mac
Plays with Stereoscopic Player (Shareware)
Nvidia Stereoscopic Player (free)
ArcSoft TotalMedia
PowerDVD 10 Ultra Mark II


- TV
Compatible with 3D TVs and 3D-Ready TVs that can play SBS (mostly all).
(Click on 3D button on remote and Chose Side By Side Left / Right when inputing this file)[/color][/size]


[u][size="4"][color="#FF0000"]General[/color][/size][/u]

3D Specs : 2D to 3D with Side By Side Left-Right Images
Format : AVI
File size : 2.17 GiB
Duration : 2h 28mn
Overall bit rate : 2101 Kbps


[u][size="4"][color="#FF0000"]VIDEO[/color][/size][/u]

ID                               : 0
Format                           : MPEG-4 Visual
Format profile                   : Advanced Simple@L5
Format settings, BVOP            : 2
Format settings, QPel            : No
Format settings, GMC             : No warppoints
Format settings, Matrix          : Default (H.263)
Codec ID                         : XVID
Codec ID/Hint                    : XviD
Duration                         : 2h 28mn
Bit rate                         : 1 897 Kbps
Width                            : 2 560 pixels
Height                           : 536 pixels
Display aspect ratio             : 4.776
Frame rate                       : 23.976 fps
Color space                      : YUV
Chroma subsampling               : 4:2:0
Bit depth                        : 8 bits
Scan type                        : Progressive
Compression mode                 : Lossy
Bits/(Pixel*Frame)               : 0.058
Stream size                      : 1.96 GiB (90%)
Writing library                  : XviD 1.2.1 (UTC 2008-12-04)


[u][size="4"][color="#FF0000"]AUDIO[/color][/size][/u]

ID                               : 1
Format                           : MPEG Audio
Format version                   : Version 1
Format profile                   : Layer 3
Mode                             : Joint stereo
Mode extension                   : MS Stereo
Codec ID                         : 55
Codec ID/Hint                    : MP3
Duration                         : 2h 28mn
Bit rate mode                    : Constant
Bit rate                         : 192 Kbps
Channel(s)                       : 2 channels
Sampling rate                    : 48.0 KHz
Compression mode                 : Lossy
Stream size                      : 203 MiB (9%)
Alignment                        : Split accross interleaves
Interleave, duration             : 42 ms (1.00 video frame)
Interleave, preload duration     : 500 ms
Writing library                  : LAME3.98r
Encoding settings                : -m j -V 4 -q 2 -lowpass 18.6 -b 192


[img]http://www.imagefreeks.com/out.php/i86_screens.png[/img]

[u][size="4"][color="#FF0000"]NORMAL PAYER SCREENS:[/color][/size][/u]

[img]http://pic.phyrefile.com/s/sh/shahaz/2011/05/01/1.jpg[/img]
[img]http://pic.phyrefile.com/s/sh/shahaz/2011/05/01/2.jpg[/img]
[img]http://pic.phyrefile.com/s/sh/shahaz/2011/05/01/3.jpg[/img]
[img]http://pic.phyrefile.com/s/sh/shahaz/2011/05/01/4.jpg[/img]
[img]http://pic.phyrefile.com/s/sh/shahaz/2011/05/01/5.jpg[/img]
[img]http://pic.phyrefile.com/s/sh/shahaz/2011/05/01/6.jpg[/img]
[img]http://pic.phyrefile.com/s/sh/shahaz/2011/05/01/7.jpg[/img]
[img]http://pic.phyrefile.com/s/sh/shahaz/2011/05/01/8.jpg[/img]
[img]http://pic.phyrefile.com/s/sh/shahaz/2011/05/01/9.jpg[/img]



[u][size="4"][color="#FF0000"]Stereoscopic Player Screens:[/color][/size][/u]

[img]http://pic.phyrefile.com/s/sh/shahaz/2011/05/01/1.JPG[/img]
[img]http://pic.phyrefile.com/s/sh/shahaz/2011/05/01/2.JPG[/img]
[img]http://pic.phyrefile.com/s/sh/shahaz/2011/05/01/3.JPG[/img]